<svg width="23" height="26" viewBox="0 0 23 26" fill="none" xmlns="http://www.w3.org/2000/svg">
<path d="M17.5903 25.129H5.0258C3.63796 25.129 2.5129 24.004 2.5129 22.6161V6.28225H0V3.76935H5.0258V2.5129C5.0258 1.12506 6.15086 0 7.5387 0H15.0774C16.4653 0 17.5903 1.12506 17.5903 2.5129V3.76935H22.6161V6.28225H20.1032V22.6161C20.1032 24.004 18.9782 25.129 17.5903 25.129ZM5.0258 6.28225V22.6161H17.5903V6.28225H5.0258ZM7.5387 2.5129V3.76935H15.0774V2.5129H7.5387ZM15.0774 20.1032H12.5645V8.79515H15.0774V20.1032ZM10.0516 20.1032H7.5387V8.79515H10.0516V20.1032Z" fill="#62788D"/>
</svg>
