<svg width="56" height="56" viewBox="0 0 56 56" fill="none" xmlns="http://www.w3.org/2000/svg">
<path d="M47.5294 44.2705L39.7264 36.4905C42.244 33.2831 43.6101 29.3224 43.605 25.245C43.605 21.6137 42.5282 18.064 40.5108 15.0447C38.4934 12.0254 35.6259 9.6722 32.2711 8.28257C28.9162 6.89295 25.2246 6.52936 21.6631 7.23778C18.1017 7.94621 14.8302 9.69483 12.2625 12.2625C9.69483 14.8302 7.94621 18.1016 7.23778 21.6631C6.52936 25.2246 6.89295 28.9162 8.28257 32.2711C9.6722 35.6259 12.0254 38.4934 15.0447 40.5108C18.064 42.5282 21.6137 43.605 25.245 43.605C29.3224 43.6101 33.2831 42.244 36.4905 39.7264L44.2706 47.5294C44.4839 47.7446 44.7377 47.9153 45.0174 48.0318C45.2971 48.1483 45.597 48.2083 45.9 48.2083C46.203 48.2083 46.5029 48.1483 46.7826 48.0318C47.0623 47.9153 47.3161 47.7446 47.5294 47.5294C47.7446 47.3161 47.9153 47.0623 48.0318 46.7826C48.1483 46.5029 48.2083 46.203 48.2083 45.9C48.2083 45.597 48.1483 45.2971 48.0318 45.0174C47.9153 44.7377 47.7446 44.4839 47.5294 44.2705ZM11.475 25.245C11.475 22.5216 12.2826 19.8593 13.7957 17.5948C15.3087 15.3303 17.4593 13.5654 19.9755 12.5232C22.4916 11.481 25.2603 11.2083 27.9314 11.7396C30.6025 12.2709 33.0561 13.5824 34.9819 15.5081C36.9076 17.4339 38.2191 19.8875 38.7504 22.5586C39.2817 25.2297 39.009 27.9984 37.9668 30.5145C36.9246 33.0307 35.1597 35.1813 32.8952 36.6943C30.6307 38.2074 27.9685 39.015 25.245 39.015C21.593 39.015 18.0905 37.5642 15.5081 34.9819C12.9258 32.3995 11.475 28.897 11.475 25.245Z" fill="#62788D"/>
</svg>
